<?xml version="1.0" encoding="UTF-8"?>
<svg width="171px" height="47px" viewBox="0 0 171 47" version="1.1" xmlns="http://www.w3.org/2000/svg" xmlns:xlink="http://www.w3.org/1999/xlink">
    <!-- Generator: Sketch 52.6 (67491) - http://www.bohemiancoding.com/sketch -->
    <title>Logo</title>
    <desc>Created with Sketch.</desc>
    <g id="Page-1" stroke="none" stroke-width="1" fill="none" fill-rule="evenodd">
        <g id="5.0.Extra-large:-Desktops" transform="translate(-165.000000, -124.000000)">
            <g id="Logo" transform="translate(165.000000, 124.000000)">
                <path d="M47.6932032,33.9888463 L43.1524226,33.9888463 L43.1524226,19.6025017 L43.1524226,19.5839387 L47.6932032,19.5839387 C52.2924319,19.5839387 55.3214619,22.4967538 55.3214619,26.7863925 C55.3214619,31.0760312 52.2924319,33.9888463 47.6932032,33.9888463 Z M47.6932032,14.8993421 L43.1524226,14.8993421 L40.5878176,14.8993421 L38.0465127,14.8993421 L38.0465127,46.2558463 L43.1524226,46.2558463 L43.1524226,38.6126194 L47.6932032,38.6126194 C55.223127,38.6126194 60.4052564,33.6262749 60.4052564,26.7559807 C60.4052564,19.8856866 55.223127,14.8993421 47.6932032,14.8993421 Z M107.929829,14.4514597 C117.121178,14.4514597 123.87548,21.5291068 123.87548,30.5779891 C123.87548,39.6256866 117.121178,46.7037286 107.929829,46.7037286 C98.7388753,46.7037286 91.9845727,39.6256866 91.9845727,30.5779891 C91.9845727,21.5291068 98.7388753,14.4514597 107.929829,14.4514597 Z M107.929829,42.000569 C114.137958,42.000569 118.76957,37.028048 118.76957,30.5779891 C118.76957,24.1539975 114.137958,19.1550144 107.929829,19.1550144 C101.72249,19.1550144 97.0908776,24.1539975 97.0908776,30.5779891 C97.0908776,37.028048 101.72249,42.000569 107.929829,42.000569 Z M88.4930924,14.8993421 L88.4930924,19.6025017 L79.3337321,19.6025017 L79.3337321,46.2558463 L74.2278222,46.2558463 L74.2278222,19.6025017 L65.0692517,19.6025017 L65.0692517,14.8993421 L88.4930924,14.8993421 Z M0,46.2353085 L14.6542656,14.8973673 L17.637485,14.9021068 L32.2123718,46.2767791 L26.8035589,46.2696698 L23.2939122,38.6319723 L8.90819169,38.6319723 L5.40881293,46.2424177 L0,46.2353085 Z M11.0601062,34.0524345 L21.1633233,34.0524345 L16.1253395,23.1796362 L11.0601062,34.0524345 Z" id="logo" fill="#00005A"></path>
                <g id="brand" transform="translate(130.441093, 0.000000)">
                    <path d="M23.4895918,14.8995396 L16.6744717,25.5973715 L16.6748666,25.5973715 L23.4473355,40.1223463 C23.6633562,40.5868169 24.3070745,40.6286824 24.5827281,40.1965984 L30.4026519,31.0600354 C30.6261761,30.7089177 30.6554001,30.2677496 30.4792662,29.8905648 L23.4895918,14.8995396 Z" id="Fill-3" fill="#008C00"></path>
                    <path d="M23.4895918,14.8995396 L16.6744717,25.5973715 L16.6748666,25.5973715 L33.2136865,25.5973715 C33.6303262,25.5973715 34.0177419,25.3848841 34.2416611,25.0337665 L40.0615849,15.8972034 C40.3364486,15.4651194 40.0264371,14.8995396 39.513832,14.8995396 L23.4895918,14.8995396 Z" id="Fill-5" fill="#73E100"></path>
                    <path d="M6.95041653,14.8995396 C6.5337768,14.8995396 6.1463611,15.1124219 5.92244193,15.4635396 L0.102518143,24.5997076 C-0.172345598,25.0317917 0.137665949,25.5973715 0.65027103,25.5973715 L16.6745112,25.5973715 L23.4896313,14.8995396 L6.95041653,14.8995396 Z" id="Fill-12" fill="#00B9FF"></path>
                    <path d="M15.5815724,0.300352167 L9.76164863,9.43691519 C9.53772946,9.78803284 9.50890036,10.2292009 9.68503431,10.6063858 L16.6747087,25.597411 L23.4894338,14.8995791 L16.7173599,0.374604268 C16.5005493,-0.0894713627 15.8568311,-0.131731867 15.5815724,0.300352167" id="Fill-14" fill="#0055FF"></path>
                </g>
            </g>
        </g>
    </g>
</svg>